<mxfile host="app.diagrams.net" agent="Mozilla/5.0 (X11; Ubuntu; Linux x86_64; rv:132.0) Gecko/20100101 Firefox/132.0" version="24.8.6">
  <diagram name="Page-1" id="gRg736VlMp8qzw45wNwr">
    <mxGraphModel dx="1898" dy="900" grid="1" gridSize="10" guides="1" tooltips="1" connect="1" arrows="1" fold="1" page="1" pageScale="1" pageWidth="850" pageHeight="1100" math="0" shadow="0">
      <root>
        <mxCell id="0" />
        <mxCell id="1" parent="0" />
        <mxCell id="E2iVttIW-6GU7dD0fnMe-1" value="Actor" style="shape=umlActor;verticalLabelPosition=bottom;verticalAlign=top;html=1;outlineConnect=0;" vertex="1" parent="1">
          <mxGeometry x="170" y="140" width="30" height="60" as="geometry" />
        </mxCell>
        <mxCell id="E2iVttIW-6GU7dD0fnMe-2" value="Actor" style="shape=umlActor;verticalLabelPosition=bottom;verticalAlign=top;html=1;outlineConnect=0;" vertex="1" parent="1">
          <mxGeometry x="170" y="480" width="30" height="60" as="geometry" />
        </mxCell>
        <mxCell id="E2iVttIW-6GU7dD0fnMe-5" value="Actor" style="shape=umlActor;verticalLabelPosition=bottom;verticalAlign=top;html=1;outlineConnect=0;" vertex="1" parent="1">
          <mxGeometry x="640" y="140" width="30" height="60" as="geometry" />
        </mxCell>
        <mxCell id="E2iVttIW-6GU7dD0fnMe-6" value="Actor" style="shape=umlActor;verticalLabelPosition=bottom;verticalAlign=top;html=1;outlineConnect=0;" vertex="1" parent="1">
          <mxGeometry x="640" y="490" width="30" height="60" as="geometry" />
        </mxCell>
        <mxCell id="E2iVttIW-6GU7dD0fnMe-7" value="" style="rounded=0;whiteSpace=wrap;html=1;" vertex="1" parent="1">
          <mxGeometry x="295" y="40" width="250" height="730" as="geometry" />
        </mxCell>
        <mxCell id="E2iVttIW-6GU7dD0fnMe-8" value="Use Case" style="ellipse;whiteSpace=wrap;html=1;" vertex="1" parent="1">
          <mxGeometry x="355" y="200" width="130" height="50" as="geometry" />
        </mxCell>
        <mxCell id="E2iVttIW-6GU7dD0fnMe-9" value="Use Case" style="ellipse;whiteSpace=wrap;html=1;" vertex="1" parent="1">
          <mxGeometry x="355" y="270" width="130" height="50" as="geometry" />
        </mxCell>
        <mxCell id="E2iVttIW-6GU7dD0fnMe-10" value="Use Case" style="ellipse;whiteSpace=wrap;html=1;" vertex="1" parent="1">
          <mxGeometry x="360" y="340" width="130" height="50" as="geometry" />
        </mxCell>
        <mxCell id="E2iVttIW-6GU7dD0fnMe-11" value="Use Case" style="ellipse;whiteSpace=wrap;html=1;" vertex="1" parent="1">
          <mxGeometry x="355" y="410" width="130" height="50" as="geometry" />
        </mxCell>
        <mxCell id="E2iVttIW-6GU7dD0fnMe-12" value="Use Case" style="ellipse;whiteSpace=wrap;html=1;" vertex="1" parent="1">
          <mxGeometry x="355" y="480" width="130" height="50" as="geometry" />
        </mxCell>
        <mxCell id="E2iVttIW-6GU7dD0fnMe-13" value="Use Case" style="ellipse;whiteSpace=wrap;html=1;" vertex="1" parent="1">
          <mxGeometry x="355" y="550" width="130" height="50" as="geometry" />
        </mxCell>
        <mxCell id="E2iVttIW-6GU7dD0fnMe-14" value="Use Case" style="ellipse;whiteSpace=wrap;html=1;" vertex="1" parent="1">
          <mxGeometry x="350" y="130" width="130" height="50" as="geometry" />
        </mxCell>
        <mxCell id="E2iVttIW-6GU7dD0fnMe-15" value="Use Case" style="ellipse;whiteSpace=wrap;html=1;" vertex="1" parent="1">
          <mxGeometry x="350" y="60" width="130" height="50" as="geometry" />
        </mxCell>
        <mxCell id="E2iVttIW-6GU7dD0fnMe-16" value="Use Case" style="ellipse;whiteSpace=wrap;html=1;" vertex="1" parent="1">
          <mxGeometry x="350" y="620" width="130" height="50" as="geometry" />
        </mxCell>
        <mxCell id="E2iVttIW-6GU7dD0fnMe-17" value="Use Case" style="ellipse;whiteSpace=wrap;html=1;" vertex="1" parent="1">
          <mxGeometry x="350" y="690" width="130" height="50" as="geometry" />
        </mxCell>
      </root>
    </mxGraphModel>
  </diagram>
</mxfile>
